<svg xmlns="http://www.w3.org/2000/svg" viewBox="0 0 180 240" role="img" aria-label="SoftThrive assistant">
  <defs>
    <linearGradient id="body" x1="20%" x2="85%" y1="0%" y2="100%">
      <stop offset="0%" stop-color="#5eead4"/>
      <stop offset="100%" stop-color="#2a9df4"/>
    </linearGradient>
  </defs>
  <ellipse cx="92" cy="228" fill="#08112b" opacity="0.14" rx="48" ry="8"/>
  <path d="M52 118 C52 98 68 88 90 88 C112 88 128 98 128 118 L128 198 C128 214 114 224 90 224 C66 224 52 214 52 198 Z" fill="url(#body)"/>
  <path d="M48 138 C28 132 18 118 14 108 C12 104 16 100 22 102 C34 108 42 120 54 128 Z" fill="#2dd4bf"/>
  <rect x="42" y="24" width="96" height="88" rx="28" fill="#fff" stroke="#08112b" stroke-width="2.5"/>
  <rect x="54" y="10" width="6" height="14" rx="3" fill="#2dd4bf"/>
  <circle cx="90" cy="8" r="7" fill="#20dcc7" stroke="#08112b" stroke-width="1.5"/>
  <rect x="54" y="48" width="72" height="34" rx="14" fill="#1a2744"/>
  <ellipse cx="72" cy="64" fill="#fff" rx="9" ry="11"/>
  <ellipse cx="108" cy="64" fill="#fff" rx="9" ry="11"/>
  <path d="M78 92 Q90 100 102 92" fill="none" stroke="#94a3b8" stroke-width="3" stroke-linecap="round"/>
</svg>
